<?xml version="1.0" encoding="UTF-8"?>
<svg viewBox="0 0 32 32" xmlns="http://www.w3.org/2000/svg">
 <g transform="translate(-247.63 -590.08)" stroke="#cd0000">
  <path transform="matrix(.12298 .19316 -.4432 .041855 478.12 553.07)" d="m124.25 512.69c0 11.855-9.4975 21.466-21.213 21.466s-21.213-9.6105-21.213-21.466 9.4975-21.466 21.213-21.466 21.213 9.6105 21.213 21.466z" fill="#8f0000"/>
  <path d="m258.75 598.05 4.6054 11.976 4.7302-11.785c-3.0934 0.55817-6.2433 0.39455-9.3356-0.19101z" fill="#8f0000" fill-rule="evenodd" stroke-width=".32031"/>
  <path d="m263.19 610.67 0.96264 10.492 5.8331-11.537c-1.8421 0.63092-4.3233 0.83482-6.7958 1.0446z" fill="#8f0000" fill-rule="evenodd" stroke-width=".32031"/>
  <path d="m263.31 610.63 0.6119 10.928-7.6027-11.727c1.8637 0.56403 4.5124 0.6785 6.9908 0.79892z" fill="#d52020" fill-rule="evenodd" stroke-width=".32031"/>
  <path d="m263.52 610.34 4.7214-12.043 7.0913 9.2238c-2.3364 0.95444-7.7857 3.6072-11.813 2.819z" fill="#900" fill-rule="evenodd" stroke-width=".32031"/>
  <path d="m268.27 598.17c3.4324-0.62314 4.7793-1.7641 5.3229-3.455l1.7909 12.594z" fill="#be0e09" fill-rule="evenodd" stroke-width=".32031"/>
  <path d="m273.87 595.77 4.8886 3.846c0.35864 0.79878 1.0638 2.426 0.48212 3.9186-0.66984 1.7189-1.9984 2.9867-3.6361 4.0001l-1.8775-11.851" fill="#8f0000" fill-rule="evenodd" stroke-width=".32031"/>
  <path d="m272.88 592.97c0.47792 0.63338 0.66302 1.2584 0.91247 2.5749l5.0601 3.932z" fill="#8f0000" fill-rule="evenodd" stroke-width=".32031"/>
  <path d="m263.47 610.42-4.6436-12.224-9.1071 8.5207c1.5507 1.4264 9.7219 4.4833 13.751 3.7033z" fill="#a60000" fill-rule="evenodd" stroke-width=".32031"/>
  <path d="m258.64 598.09c-3.2703-1.2144-4.7973-2.4023-5.0365-4.1622l-3.8181 12.539z" fill="#8f0000" fill-rule="evenodd" stroke-width=".32031"/>
  <path d="m254.13 592.85-5.8393 7.1239c-1.5938 3.3708 1.0684 6.1238 1.2515 6.6348z" fill="#ad0f0f" fill-rule="evenodd" stroke-width=".32031"/>
  <path d="m249.48 606.71 14.482 15.042-7.6547-12.114c-2.6397-0.61265-4.6358-1.8676-6.8271-2.9276z" fill="#8f0000" fill-rule="evenodd" stroke-width=".32031"/>
  <path d="m275.55 607.44-11.708 14.477 6.0726-12.157c2.0147-0.78866 3.8297-1.5832 5.6349-2.3197z" fill="#900" fill-rule="evenodd" stroke-width=".32031"/>
  <path d="m275.55 607.44-11.708 14.477 15.073-17.533z" fill="#900" fill-rule="evenodd" stroke-width=".32031"/>
 </g>
</svg>
